<svg width="33" height="29" viewBox="0 0 33 29" fill="none" xmlns="http://www.w3.org/2000/svg">
<mask id="path-1-inside-1" fill="white">
<path fill-rule="evenodd" clip-rule="evenodd" d="M33 0H0V29H33V0ZM12.25 21.8612L25 14.5L12.25 7.13878L12.25 21.8612Z"/>
</mask>
<path fill-rule="evenodd" clip-rule="evenodd" d="M33 0H0V29H33V0ZM12.25 21.8612L25 14.5L12.25 7.13878L12.25 21.8612Z" fill="white"/>
<path d="M0 0V-1H-1V0H0ZM33 0H34V-1H33V0ZM0 29H-1V30H0V29ZM33 29V30H34V29H33ZM25 14.5L25.5 15.366L27 14.5L25.5 13.634L25 14.5ZM12.25 21.8612L11.25 21.8612L11.25 23.5933L12.75 22.7272L12.25 21.8612ZM12.25 7.13878L12.75 6.27276L11.25 5.40673L11.25 7.13878L12.25 7.13878ZM0 1H33V-1H0V1ZM1 29V0H-1V29H1ZM33 28H0V30H33V28ZM32 0V29H34V0H32ZM24.5 13.634L11.75 20.9952L12.75 22.7272L25.5 15.366L24.5 13.634ZM11.75 8.00481L24.5 15.366L25.5 13.634L12.75 6.27276L11.75 8.00481ZM13.25 21.8612L13.25 7.13878L11.25 7.13878L11.25 21.8612L13.25 21.8612Z" fill="white" mask="url(#path-1-inside-1)"/>
</svg>
